<svg viewBox="0 0 24 24" fill="currentColor" xmlns="http://www.w3.org/2000/svg">
  <!-- Warm light wash — dimmer for error state -->
  <rect x="4.5" y="4.0" width="5.5" height="9" rx="2" fill="#ffc030" opacity="0.03"/>
  <!-- Body with X-X eyes — dazed/crashed -->
  <path fill="#f0a828" fill-rule="evenodd" d="M9 4 L15 4 A4 4 0 0 1 19 8 L19 12 A4 4 0 0 1 15 16 L9 16 A4 4 0 0 1 5 12 L5 8 A4 4 0 0 1 9 4 Z M8.5 8.5 L9 8.5 L9.8 9.6 L10.6 8.5 L11.1 8.5 L10.1 9.9 L11.1 11.3 L10.6 11.3 L9.8 10.2 L9 11.3 L8.5 11.3 L9.5 9.9 Z M12.9 8.5 L13.4 8.5 L14.2 9.6 L15 8.5 L15.5 8.5 L14.5 9.9 L15.5 11.3 L15 11.3 L14.2 10.2 L13.4 11.3 L12.9 11.3 L13.9 9.9 Z"/>
  <!-- Zigzag squiggle mouth -->
  <path d="M10.2 13.3 L11 12.8 L11.8 13.3 L12.6 12.8 L13.4 13.3 L13.8 13.3 L12.8 13.8 L12 13.3 L11.2 13.8 L10.4 13.3 Z" fill="#5a3800"/>
  <!-- Arms — drooped down -->
  <g transform="rotate(-10 2.5 11)"><path fill="#f0a828" d="M1.8 9 L3.2 9 A0.8 0.8 0 0 1 4 9.8 L4 12.2 A0.8 0.8 0 0 1 3.2 13 L1.8 13 A0.8 0.8 0 0 1 1 12.2 L1 9.8 A0.8 0.8 0 0 1 1.8 9 Z"/></g>
  <g transform="rotate(10 21.5 11)"><path fill="#f0a828" d="M20.8 9 L22.2 9 A0.8 0.8 0 0 1 23 9.8 L23 12.2 A0.8 0.8 0 0 1 22.2 13 L20.8 13 A0.8 0.8 0 0 1 20 12.2 L20 9.8 A0.8 0.8 0 0 1 20.8 9 Z"/></g>
  <!-- Legs -->
  <rect fill="#f0a828" x="7.2" y="17" width="3.5" height="4" rx="1.2"/>
  <rect fill="#f0a828" x="13.3" y="17" width="3.5" height="4" rx="1.2"/>
  <!-- Scattered dust motes — fewer, dimmer -->
  <circle cx="6.5" cy="6.0" r="0.40" fill="#ffc030" opacity="0.40"/>
  <circle cx="20.5" cy="11.5" r="0.28" fill="#ffe090" opacity="0.25"/>
</svg>
