<svg viewBox="0 0 24 24" fill="currentColor" xmlns="http://www.w3.org/2000/svg">
  <!-- Warm light wash -->
  <rect x="4.5" y="4.0" width="5.5" height="9" rx="2" fill="#ffc030" opacity="0.05"/>
  <!-- Body with tall oval eye cutouts — wide-eyed surprise -->
  <path fill="#f0a828" fill-rule="evenodd" d="M9 4 L15 4 A4 4 0 0 1 19 8 L19 12 A4 4 0 0 1 15 16 L9 16 A4 4 0 0 1 5 12 L5 8 A4 4 0 0 1 9 4 Z M9.5 7.8 A1.2 2.2 0 1 0 9.5 12.2 A1.2 2.2 0 1 0 9.5 7.8 Z M14.5 7.8 A1.2 2.2 0 1 0 14.5 12.2 A1.2 2.2 0 1 0 14.5 7.8 Z"/>
  <!-- O-shaped mouth -->
  <ellipse cx="12" cy="13.8" rx="0.9" ry="1.1" fill="#5a3800"/>
  <!-- Arms — raised outward -->
  <g transform="rotate(20 2.5 11)"><path fill="#f0a828" d="M1.8 9 L3.2 9 A0.8 0.8 0 0 1 4 9.8 L4 12.2 A0.8 0.8 0 0 1 3.2 13 L1.8 13 A0.8 0.8 0 0 1 1 12.2 L1 9.8 A0.8 0.8 0 0 1 1.8 9 Z"/></g>
  <g transform="rotate(-20 21.5 11)"><path fill="#f0a828" d="M20.8 9 L22.2 9 A0.8 0.8 0 0 1 23 9.8 L23 12.2 A0.8 0.8 0 0 1 22.2 13 L20.8 13 A0.8 0.8 0 0 1 20 12.2 L20 9.8 A0.8 0.8 0 0 1 20.8 9 Z"/></g>
  <!-- Legs -->
  <rect fill="#f0a828" x="7.2" y="17" width="3.5" height="4" rx="1.2"/>
  <rect fill="#f0a828" x="13.3" y="17" width="3.5" height="4" rx="1.2"/>
  <!-- Dust motes -->
  <circle cx="6.5" cy="6.0" r="0.40" fill="#ffc030" opacity="0.70"/>
  <circle cx="8.5" cy="4.5" r="0.30" fill="#ffe090" opacity="0.55"/>
  <circle cx="20.5" cy="11.5" r="0.28" fill="#ffe090" opacity="0.35"/>
</svg>
