<svg xmlns="http://www.w3.org/2000/svg" viewBox="0 0 40 40" fill="currentColor">
  <!-- Strawberry seeds: small teardrop ovals scattered in a staggered grid -->
  <ellipse cx="6"  cy="6"  rx="0.9" ry="1.5" transform="rotate(-18 6 6)"/>
  <ellipse cx="20" cy="6"  rx="0.9" ry="1.5" transform="rotate(12 20 6)"/>
  <ellipse cx="34" cy="6"  rx="0.9" ry="1.5" transform="rotate(-10 34 6)"/>
  <ellipse cx="13" cy="13" rx="0.9" ry="1.5" transform="rotate(22 13 13)"/>
  <ellipse cx="27" cy="13" rx="0.9" ry="1.5" transform="rotate(-24 27 13)"/>
  <ellipse cx="6"  cy="20" rx="0.9" ry="1.5" transform="rotate(8 6 20)"/>
  <ellipse cx="20" cy="20" rx="0.9" ry="1.5" transform="rotate(-16 20 20)"/>
  <ellipse cx="34" cy="20" rx="0.9" ry="1.5" transform="rotate(20 34 20)"/>
  <ellipse cx="13" cy="27" rx="0.9" ry="1.5" transform="rotate(-6 13 27)"/>
  <ellipse cx="27" cy="27" rx="0.9" ry="1.5" transform="rotate(18 27 27)"/>
  <ellipse cx="6"  cy="34" rx="0.9" ry="1.5" transform="rotate(14 6 34)"/>
  <ellipse cx="20" cy="34" rx="0.9" ry="1.5" transform="rotate(-22 20 34)"/>
  <ellipse cx="34" cy="34" rx="0.9" ry="1.5" transform="rotate(10 34 34)"/>
</svg>
